grf
version=1
nRows=11
nColumns=37
inDegrees=no
endheader
time	ground_force_1_vx	ground_force_1_vy	ground_force_1_vz	ground_force_1_px	ground_force_1_py	ground_force_1_pz	ground_moment_1_mx	ground_moment_1_my	ground_moment_1_mz	ground_force_2_vx	ground_force_2_vy	ground_force_2_vz	ground_force_2_px	ground_force_2_py	ground_force_2_pz	ground_moment_2_mx	ground_moment_2_my	ground_moment_2_mz	ground_force_3_vx	ground_force_3_vy	ground_force_3_vz	ground_force_3_px	ground_force_3_py	ground_force_3_pz	ground_moment_3_mx	ground_moment_3_my	ground_moment_3_mz	ground_force_4_vx	ground_force_4_vy	ground_force_4_vz	ground_force_4_px	ground_force_4_py	ground_force_4_pz	ground_moment_4_mx	ground_moment_4_my	ground_moment_4_mz
      0.00000000	      0.00000000	     -0.00000000	      0.00000000	      0.00000000	      0.00000000	      0.00000000	      0.00000000	      0.00000000	      0.00000000	    -11.30398178	     13.19131088	   -118.57699585	   -280.66720250	   -916.12584972	      0.00000000	      0.00000000	     -0.00000000	   -459.74261693	      4.96353483	     -5.44035192	   -639.29638672	   -297.54895907	   -824.21028236	      0.00000000	      0.00000000	      0.00000000	    932.37650768	      0.00000000	     -0.00000000	      0.00000000	      0.00000000	      0.00000000	      0.00000000	      0.00000000	      0.00000000	      0.00000000
      0.01000000	      0.00000000	     -0.00000000	      0.00000000	      0.00000000	      0.00000000	      0.00000000	      0.00000000	      0.00000000	      0.00000000	    -10.64241600	     13.44552040	   -119.40960693	   -281.63102872	   -921.57985583	      0.00000000	      0.00000000	     -0.00000000	    -69.16440228	      4.81671756	     -6.24899000	   -638.38732910	   -297.52437893	   -824.59164952	      0.00000000	      0.00000000	      0.00000000	   1088.95042774	      0.00000000	     -0.00000000	      0.00000000	      0.00000000	      0.00000000	      0.00000000	      0.00000000	      0.00000000	      0.00000000
      0.02000000	      0.00000000	     -0.00000000	      0.00000000	      0.00000000	      0.00000000	      0.00000000	      0.00000000	      0.00000000	      0.00000000	    -11.18677807	     13.02449417	   -119.70971680	   -280.36744362	   -919.67732205	      0.00000000	      0.00000000	     -0.00000000	   -265.37671362	      5.22480673	     -6.10094211	   -639.62799072	   -297.92534977	   -823.94697654	      0.00000000	      0.00000000	      0.00000000	   1046.05610452	      0.00000000	     -0.00000000	      0.00000000	      0.00000000	      0.00000000	      0.00000000	      0.00000000	      0.00000000	      0.00000000
      0.03000000	      0.00000000	     -0.00000000	      0.00000000	      0.00000000	      0.00000000	      0.00000000	      0.00000000	      0.00000000	      0.00000000	    -10.78981972	     13.37885666	   -120.02592468	   -283.23316839	   -923.27378576	      0.00000000	      0.00000000	      0.00000000	   -233.34483535	      5.68213549	     -6.45673468	   -640.96923828	   -298.60153095	   -823.05614907	      0.00000000	      0.00000000	      0.00000000	   1131.26980722	      0.00000000	     -0.00000000	      0.00000000	      0.00000000	      0.00000000	      0.00000000	      0.00000000	      0.00000000	      0.00000000
      0.04000000	      0.00000000	     -0.00000000	      0.00000000	      0.00000000	      0.00000000	      0.00000000	      0.00000000	      0.00000000	      0.00000000	    -10.73388863	     13.31547260	   -118.00006104	   -282.03698418	   -917.99310665	      0.00000000	      0.00000000	     -0.00000000	   -367.14514065	      6.27939691	     -6.59185274	   -640.53747559	   -298.70689638	   -823.57850312	      0.00000000	      0.00000000	      0.00000000	   1224.35032223	      0.00000000	     -0.00000000	      0.00000000	      0.00000000	      0.00000000	      0.00000000	      0.00000000	      0.00000000	      0.00000000
      0.05000000	      0.00000000	     -0.00000000	      0.00000000	      0.00000000	      0.00000000	      0.00000000	      0.00000000	      0.00000000	      0.00000000	    -10.79934216	     13.00817299	   -120.00405121	   -280.49992794	   -925.27039480	      0.00000000	      0.00000000	     -0.00000000	   -251.80734627	      6.47588668	     -7.07541808	   -642.14727783	   -298.82602828	   -822.73351586	      0.00000000	      0.00000000	      0.00000000	   1246.01168173	      0.00000000	     -0.00000000	      0.00000000	      0.00000000	      0.00000000	      0.00000000	      0.00000000	      0.00000000	      0.00000000
      0.06000000	      0.00000000	     -0.00000000	      0.00000000	      0.00000000	      0.00000000	      0.00000000	      0.00000000	      0.00000000	      0.00000000	    -10.92576599	     12.84985924	   -118.83480835	   -282.41506901	   -921.02046904	      0.00000000	      0.00000000	     -0.00000000	   -471.46562036	      6.83079369	     -7.35490954	   -642.39965820	   -299.02739789	   -822.59992202	      0.00000000	      0.00000000	      0.00000000	   1102.16939323	      0.00000000	     -0.00000000	      0.00000000	      0.00000000	      0.00000000	      0.00000000	      0.00000000	      0.00000000	      0.00000000
      0.07000000	      0.00000000	     -0.00000000	      0.00000000	      0.00000000	      0.00000000	      0.00000000	      0.00000000	      0.00000000	      0.00000000	    -10.72064877	     12.82452869	   -118.98102570	   -282.25540989	   -921.23665501	      0.00000000	      0.00000000	     -0.00000000	   -430.48307427	      6.50660735	     -7.59566555	   -643.25823975	   -299.42669515	   -823.08754996	      0.00000000	      0.00000000	      0.00000000	   1201.95569277	      0.00000000	     -0.00000000	      0.00000000	      0.00000000	      0.00000000	      0.00000000	      0.00000000	      0.00000000	      0.00000000
      0.08000000	      0.00000000	     -0.00000000	      0.00000000	      0.00000000	      0.00000000	      0.00000000	      0.00000000	      0.00000000	      0.00000000	    -11.19588375	     13.05498791	   -117.09988403	   -279.47238365	   -917.62995484	      0.00000000	      0.00000000	     -0.00000000	   -574.88983617	      6.54120949	     -7.87627850	   -643.66113281	   -298.98994975	   -823.78946435	      0.00000000	      0.00000000	      0.00000000	   1255.22932914	      0.00000000	     -0.00000000	      0.00000000	      0.00000000	      0.00000000	      0.00000000	      0.00000000	      0.00000000	      0.00000000
      0.09000000	      0.00000000	     -0.00000000	      0.00000000	      0.00000000	      0.00000000	      0.00000000	      0.00000000	      0.00000000	      0.00000000	    -11.40820980	     12.93999767	   -116.59188080	   -280.77211578	   -917.34680683	      0.00000000	      0.00000000	     -0.00000000	   -531.43237778	      6.65330817	     -8.01593743	   -644.33227539	   -298.83027983	   -824.13603376	      0.00000000	      0.00000000	      0.00000000	   1169.71537328	      0.00000000	     -0.00000000	      0.00000000	      0.00000000	      0.00000000	      0.00000000	      0.00000000	      0.00000000	      0.00000000
      0.10000000	      0.00000000	     -0.00000000	      0.00000000	      0.00000000	      0.00000000	      0.00000000	      0.00000000	      0.00000000	      0.00000000	    -11.26045609	     13.05224991	   -117.59812164	   -281.26687990	   -919.65213058	      0.00000000	      0.00000000	     -0.00000000	   -376.70507884	      6.87233142	     -7.76634086	   -643.62890625	   -298.62164274	   -824.23066244	      0.00000000	      0.00000000	      0.00000000	    974.54441134	      0.00000000	     -0.00000000	      0.00000000	      0.00000000	      0.00000000	      0.00000000	      0.00000000	      0.00000000	      0.00000000
